<svg width="524" height="81" viewBox="0 0 524 81" fill="currentColor" xmlns="http://www.w3.org/2000/svg">
  <path d="M0 0.244141V80.7541H34.0223C30.4971 79.477 27.4506 77.1457 25.2964 74.0769C23.1423 71.0081 21.985 67.3507 21.9818 63.6013C21.9801 61.2006 22.4516 58.823 23.3691 56.6045C24.2867 54.386 25.6324 52.3701 27.3294 50.6719C29.0263 48.9737 31.0413 47.6266 33.2592 46.7075C35.477 45.7884 37.8542 45.3153 40.255 45.3153C45.1013 45.3153 49.7491 47.2405 53.176 50.6673C56.6029 54.0942 58.5281 58.7421 58.5281 63.5884C58.5249 67.3378 57.3676 70.9953 55.2135 74.064C53.0594 77.1328 50.0128 79.4641 46.4877 80.7412H80.51V0.244141H0Z"/>
  <path d="M112.858 2.63911H132.638L153.529 53.6076H154.418L175.309 2.63911H195.089V78.4991H179.532V29.1234H178.902L159.271 78.1287H148.677L129.045 28.9382H128.415V78.4991H112.858V2.63911Z"/>
  <path d="M224.231 79.5733C220.601 79.5733 217.366 78.9436 214.527 77.6842C211.687 76.4001 209.44 74.511 207.785 72.017C206.155 69.4982 205.34 66.362 205.34 62.6085C205.34 59.4477 205.921 56.7931 207.081 54.6447C208.242 52.4963 209.822 50.7678 211.823 49.459C213.823 48.1502 216.095 47.1624 218.638 46.4957C221.206 45.8289 223.898 45.3598 226.713 45.0881C230.022 44.7424 232.689 44.4214 234.714 44.1251C236.739 43.804 238.208 43.3349 239.122 42.7175C240.035 42.1002 240.492 41.1865 240.492 39.9765V39.7542C240.492 37.4083 239.752 35.5933 238.27 34.3092C236.813 33.0251 234.739 32.3831 232.047 32.3831C229.207 32.3831 226.948 33.0128 225.268 34.2721C223.589 35.5068 222.478 37.0626 221.935 38.9393L207.341 37.754C208.081 34.2968 209.538 31.3089 211.711 28.7901C213.885 26.2466 216.687 24.2958 220.12 22.9376C223.577 21.5547 227.577 20.8633 232.121 20.8633C235.282 20.8633 238.307 21.2337 241.196 21.9745C244.11 22.7153 246.691 23.8636 248.938 25.4193C251.21 26.9751 253 28.9753 254.309 31.42C255.617 33.84 256.272 36.7416 256.272 40.1246V78.4991H241.307V70.6094H240.863C239.949 72.3874 238.727 73.9554 237.196 75.3136C235.665 76.6471 233.825 77.6966 231.677 78.4621C229.528 79.2029 227.046 79.5733 224.231 79.5733ZM228.75 68.6833C231.072 68.6833 233.121 68.2264 234.899 67.3127C236.677 66.3744 238.072 65.115 239.085 63.5346C240.097 61.9541 240.603 60.1638 240.603 58.1636V52.1259C240.11 52.4469 239.43 52.7433 238.566 53.0149C237.727 53.2618 236.776 53.4964 235.714 53.7187C234.652 53.9162 233.59 54.1014 232.529 54.2743C231.467 54.4225 230.504 54.5583 229.639 54.6818C227.787 54.9534 226.17 55.3855 224.787 55.9782C223.404 56.5708 222.33 57.3734 221.564 58.3859C220.799 59.3736 220.416 60.6083 220.416 62.09C220.416 64.2383 221.194 65.8805 222.75 67.0164C224.33 68.1276 226.33 68.6833 228.75 68.6833Z"/>
  <path d="M294.443 79.6104C288.59 79.6104 283.553 78.425 279.33 76.0544C275.132 73.6591 271.897 70.276 269.625 65.9052C267.353 61.5096 266.217 56.3116 266.217 50.3109C266.217 44.4584 267.353 39.3221 269.625 34.9018C271.897 30.4816 275.095 27.0368 279.219 24.5674C283.367 22.098 288.232 20.8633 293.813 20.8633C297.566 20.8633 301.061 21.4683 304.296 22.6783C307.555 23.8636 310.395 25.6539 312.815 28.0493C315.26 30.4446 317.161 33.4572 318.519 37.0873C319.877 40.6926 320.557 44.9153 320.557 49.7553V54.0891H272.514V44.3103H305.703C305.703 42.0384 305.209 40.0259 304.221 38.2726C303.234 36.5193 301.863 35.1488 300.11 34.161C298.381 33.1486 296.369 32.6423 294.072 32.6423C291.677 32.6423 289.553 33.198 287.701 34.3092C285.874 35.3957 284.442 36.865 283.404 38.7171C282.367 40.5444 281.836 42.5817 281.812 44.8288V54.1261C281.812 56.9413 282.33 59.3736 283.367 61.4232C284.429 63.4728 285.923 65.0532 287.849 66.1645C289.775 67.2757 292.06 67.8313 294.702 67.8313C296.455 67.8313 298.06 67.5844 299.517 67.0905C300.974 66.5966 302.221 65.8558 303.258 64.868C304.296 63.8803 305.086 62.6703 305.629 61.238L320.223 62.2011C319.482 65.7076 317.964 68.7697 315.667 71.3873C313.395 73.9801 310.457 76.005 306.851 77.462C303.271 78.8942 299.134 79.6104 294.443 79.6104Z"/>
  <path d="M378.192 37.8281L363.746 38.7171C363.499 37.4824 362.968 36.3711 362.154 35.3834C361.339 34.3709 360.264 33.5684 358.931 32.9757C357.622 32.3584 356.054 32.0497 354.227 32.0497C351.782 32.0497 349.72 32.5683 348.041 33.6054C346.362 34.6179 345.522 35.976 345.522 37.6799C345.522 39.0381 346.065 40.1864 347.152 41.1247C348.238 42.0631 350.103 42.8163 352.745 43.3842L363.043 45.4585C368.574 46.5945 372.698 48.4218 375.414 50.9406C378.131 53.4594 379.489 56.7684 379.489 60.8676C379.489 64.5964 378.39 67.8684 376.192 70.6835C374.019 73.4986 371.031 75.6964 367.228 77.2768C363.45 78.8325 359.092 79.6104 354.153 79.6104C346.621 79.6104 340.62 78.0423 336.151 74.9062C331.706 71.7453 329.101 67.4486 328.335 62.0159L343.855 61.201C344.324 63.4975 345.46 65.2508 347.263 66.4608C349.066 67.6461 351.375 68.2388 354.19 68.2388C356.955 68.2388 359.178 67.7078 360.857 66.646C362.561 65.5595 363.425 64.1643 363.45 62.4604C363.425 61.0281 362.82 59.8551 361.635 58.9415C360.45 58.0031 358.622 57.287 356.153 56.7931L346.3 54.8299C340.744 53.7187 336.608 51.7926 333.891 49.0515C331.2 46.3105 329.854 42.8163 329.854 38.5689C329.854 34.9142 330.842 31.7657 332.817 29.1234C334.817 26.4812 337.62 24.4439 341.225 23.0117C344.855 21.5794 349.103 20.8633 353.967 20.8633C361.153 20.8633 366.808 22.382 370.932 25.4193C375.081 28.4567 377.501 32.593 378.192 37.8281Z"/>
  <path d="M419.688 21.6041V33.4572H385.425V21.6041H419.688ZM393.203 7.97302H408.983V61.0158C408.983 62.4727 409.205 63.6086 409.649 64.4235C410.094 65.2137 410.711 65.7694 411.501 66.0904C412.316 66.4114 413.255 66.5719 414.317 66.5719C415.057 66.5719 415.798 66.5102 416.539 66.3867C417.28 66.2386 417.848 66.1274 418.243 66.0533L420.725 77.7953C419.934 78.0423 418.823 78.3263 417.391 78.6473C415.959 78.993 414.218 79.2029 412.168 79.277C408.365 79.4252 405.032 78.9189 402.167 77.7583C399.327 76.5977 397.117 74.795 395.537 72.3503C393.956 69.9056 393.178 66.8189 393.203 63.0901V7.97302Z"/>
  <path d="M429.966 78.4991V21.6041H445.264V31.5311H445.857C446.894 27.9999 448.635 25.3329 451.08 23.5303C453.525 21.7029 456.34 20.7892 459.525 20.7892C460.315 20.7892 461.167 20.8386 462.081 20.9374C462.995 21.0362 463.797 21.172 464.489 21.3448V35.3463C463.748 35.1241 462.723 34.9265 461.414 34.7537C460.105 34.5808 458.908 34.4944 457.821 34.4944C455.5 34.4944 453.426 35.0006 451.598 36.0131C449.796 37.0008 448.363 38.3837 447.302 40.1617C446.264 41.9396 445.746 43.9892 445.746 46.3105V78.4991H429.966Z"/>
  <path d="M495.705 79.6104C489.951 79.6104 484.975 78.388 480.777 75.9433C476.604 73.4739 473.382 70.0414 471.11 65.6459C468.838 61.2257 467.702 56.1017 467.702 50.2739C467.702 44.3967 468.838 39.2603 471.11 34.8648C473.382 30.4446 476.604 27.0121 480.777 24.5674C484.975 22.098 489.951 20.8633 495.705 20.8633C501.459 20.8633 506.422 22.098 510.595 24.5674C514.793 27.0121 518.028 30.4446 520.3 34.8648C522.572 39.2603 523.708 44.3967 523.708 50.2739C523.708 56.1017 522.572 61.2257 520.3 65.6459C518.028 70.0414 514.793 73.4739 510.595 75.9433C506.422 78.388 501.459 79.6104 495.705 79.6104ZM495.779 67.3868C498.397 67.3868 500.582 66.646 502.335 65.1644C504.089 63.658 505.41 61.6084 506.299 59.0156C507.212 56.4227 507.669 53.4717 507.669 50.1627C507.669 46.8537 507.212 43.9028 506.299 41.3099C505.41 38.7171 504.089 36.6675 502.335 35.1611C500.582 33.6548 498.397 32.9016 495.779 32.9016C493.137 32.9016 490.914 33.6548 489.112 35.1611C487.334 36.6675 485.988 38.7171 485.074 41.3099C484.185 43.9028 483.741 46.8537 483.741 50.1627C483.741 53.4717 484.185 56.4227 485.074 59.0156C485.988 61.6084 487.334 63.658 489.112 65.1644C490.914 66.646 493.137 67.3868 495.779 67.3868Z"/>
</svg>
